<svg width="72" height="73" viewBox="0 0 72 73" fill="none" xmlns="http://www.w3.org/2000/svg">
<path d="M38.5087 48.0953L47.8253 38.7787C48.4823 38.1217 48.8107 37.2856 48.8107 36.2703C48.8107 35.2551 48.4823 34.419 47.8253 33.762L38.4191 24.3558C37.7621 23.6988 36.9415 23.3847 35.9573 23.4133C34.9707 23.4444 34.1489 23.7884 33.492 24.4453C32.835 25.1023 32.5066 25.9384 32.5066 26.9537C32.5066 27.969 32.835 28.8051 33.492 29.462L36.717 32.687H25.1607C24.1455 32.687 23.3094 33.0298 22.6524 33.7154C21.9955 34.4034 21.667 35.2551 21.667 36.2703C21.667 37.2856 22.011 38.1361 22.699 38.8217C23.3846 39.5097 24.235 39.8537 25.2503 39.8537H36.717L33.4024 43.1683C32.7455 43.8252 32.4313 44.647 32.46 45.6336C32.491 46.6178 32.835 47.4384 33.492 48.0953C34.1489 48.7523 34.985 49.0808 36.0003 49.0808C37.0156 49.0808 37.8517 48.7523 38.5087 48.0953ZM36.0003 72.1037C31.0434 72.1037 26.385 71.1625 22.0253 69.28C17.6656 67.4 13.8732 64.8474 10.6482 61.6224C7.42324 58.3974 4.87071 54.6051 2.99066 50.2453C1.10821 45.8856 0.166992 41.2273 0.166992 36.2703C0.166992 31.3134 1.10821 26.6551 2.99066 22.2953C4.87071 17.9356 7.42324 14.1433 10.6482 10.9183C13.8732 7.69326 17.6656 5.13954 22.0253 3.25709C26.385 1.37704 31.0434 0.437012 36.0003 0.437012C40.9573 0.437012 45.6156 1.37704 49.9753 3.25709C54.335 5.13954 58.1274 7.69326 61.3524 10.9183C64.5774 14.1433 67.1299 17.9356 69.01 22.2953C70.8924 26.6551 71.8337 31.3134 71.8337 36.2703C71.8337 41.2273 70.8924 45.8856 69.01 50.2453C67.1299 54.6051 64.5774 58.3974 61.3524 61.6224C58.1274 64.8474 54.335 67.4 49.9753 69.28C45.6156 71.1625 40.9573 72.1037 36.0003 72.1037Z" fill="#016099"/>
</svg>
