<svg width="72" height="73" viewBox="0 0 72 73" fill="none" xmlns="http://www.w3.org/2000/svg">
<path d="M33.4913 48.0953L24.1747 38.7787C23.5177 38.1217 23.1893 37.2856 23.1893 36.2703C23.1893 35.2551 23.5177 34.419 24.1747 33.762L33.5809 24.3558C34.2379 23.6988 35.0585 23.3847 36.0427 23.4133C37.0293 23.4444 37.8511 23.7884 38.508 24.4453C39.165 25.1023 39.4934 25.9384 39.4934 26.9537C39.4934 27.969 39.165 28.8051 38.508 29.462L35.283 32.687H46.8393C47.8545 32.687 48.6906 33.0298 49.3476 33.7154C50.0045 34.4034 50.333 35.2551 50.333 36.2703C50.333 37.2856 49.989 38.1361 49.301 38.8217C48.6154 39.5097 47.765 39.8537 46.7497 39.8537H35.283L38.5976 43.1683C39.2545 43.8252 39.5687 44.647 39.54 45.6336C39.509 46.6178 39.165 47.4384 38.508 48.0953C37.8511 48.7523 37.015 49.0808 35.9997 49.0808C34.9844 49.0808 34.1483 48.7523 33.4913 48.0953ZM35.9997 72.1037C40.9566 72.1037 45.615 71.1625 49.9747 69.28C54.3344 67.4 58.1268 64.8474 61.3518 61.6224C64.5768 58.3974 67.1293 54.6051 69.0093 50.2453C70.8918 45.8856 71.833 41.2273 71.833 36.2703C71.833 31.3134 70.8918 26.6551 69.0093 22.2953C67.1293 17.9356 64.5768 14.1433 61.3518 10.9183C58.1268 7.69326 54.3344 5.13954 49.9747 3.25709C45.615 1.37704 40.9566 0.437012 35.9997 0.437012C31.0427 0.437012 26.3844 1.37704 22.0247 3.25709C17.665 5.13954 13.8726 7.69326 10.6476 10.9183C7.42259 14.1433 4.87006 17.9356 2.99001 22.2953C1.10757 26.6551 0.166344 31.3134 0.166344 36.2703C0.166344 41.2273 1.10757 45.8856 2.99001 50.2453C4.87006 54.6051 7.42259 58.3974 10.6476 61.6224C13.8726 64.8474 17.665 67.4 22.0247 69.28C26.3844 71.1625 31.0427 72.1037 35.9997 72.1037Z" fill="#016099"/>
</svg>
